<?xml version="1.0" encoding="UTF-8"?>
<svg version="1.1" viewBox="0 0 157.81 23.911" xmlns="http://www.w3.org/2000/svg">
    <g>
        <g>
            <polygon points="13.654 23.562 8.2941 23.562 5.1126 12.85 5.1126 23.562 2.837e-4 23.562 2.837e-4 -5.6849e-5 5.1126 -5.6849e-5 8.5409 10.609 8.5409 -5.6849e-5 13.654 -5.6849e-5"/>
            <path d="m23.342 11.104v-1.4116c0-0.99941-0.0539-1.6446-0.16001-1.9363-0.10667-0.2905-0.32456-0.43603-0.65366-0.43603-0.40627 0-0.65876 0.12393-0.75579 0.37123-0.09646 0.24729-0.14469 0.91414-0.14469 2.0011v1.4116zm5.8823 3.1432h-7.5965v4.1767c0 0.8732 0.06298 1.436 0.18895 1.6884 0.1254 0.25241 0.36768 0.37862 0.72628 0.37862 0.44485 0 0.74274-0.1677 0.8931-0.50255 0.15036-0.33427 0.2247-0.98235 0.2247-1.9425v-2.5474h5.5635v1.4263c0 1.1938-0.0749 2.1102-0.22469 2.7509-0.15036 0.64012-0.50102 1.324-1.0537 2.0517-0.55152 0.72824-1.2511 1.274-2.0983 1.6373-0.84771 0.36384-1.9105 0.54575-3.1883 0.54575-1.2404 0-2.3338-0.17908-3.283-0.53836-0.94928-0.35872-1.6875-0.85103-2.2152-1.4775-0.52769-0.62534-0.89367-1.3138-1.0968-2.0659-0.2037-0.75212-0.3047-1.8459-0.3047-3.2819v-5.6321c0-1.6884 0.22696-3.0198 0.68259-3.9948 0.45506-0.97496 1.2006-1.7225 2.2367-2.2416 1.0361-0.51846 2.2271-0.77827 3.5735-0.77827 1.6455 0 3.0039 0.31267 4.0746 0.93858 1.0696 0.62591 1.8202 1.4553 2.2515 2.4883 0.4301 1.0335 0.64571 2.4866 0.64571 4.3586z"/>
            <path d="m50.113 4.2497-2.3423 19.312h-6.3697c-0.34669-2.3598-0.75182-5.4689-1.216-9.3284-0.15888 1.6981-0.37903 3.4104-0.65933 5.1375l-0.64458 4.1909h-6.3839l-2.4875-19.312h5.0579c0.03915 0.50425 0.46641 4.1909 1.2823 11.061 0.06412-0.70664 0.50386-4.3939 1.3181-11.061h4.8593l1.1876 11.061c0.18781-3.2302 0.63663-6.9168 1.3453-11.061z"/>
            <path d="m58.538 9.1102c0-0.70777-0.06071-1.1836-0.18157-1.4263-0.12143-0.24218-0.36087-0.36327-0.71948-0.36327-0.34839 0-0.5833 0.10915-0.70416 0.32745-0.12143 0.2183-0.18157 0.7055-0.18157 1.4622v9.4603c0 0.78509 0.05787 1.3024 0.17419 1.5491 0.11632 0.24786 0.33874 0.37179 0.66841 0.37179 0.37733 0 0.62926-0.13871 0.75522-0.415s0.18895-0.95336 0.18895-2.0301zm5.8682-9.1101v23.562h-5.8682v-1.4008c-0.56174 0.58327-1.1524 1.021-1.772 1.3126-0.62018 0.29107-1.2687 0.43717-1.9468 0.43717-0.91012 0-1.6994-0.2399-2.3678-0.71971-0.66784-0.48094-1.0962-1.0364-1.2852-1.6668-0.18895-0.63046-0.28314-1.6589-0.28314-3.0852v-9.0373c0-1.4849 0.09419-2.5372 0.28314-3.1585 0.18895-0.62079 0.62188-1.1665 1.2999-1.6373 0.67749-0.47014 1.4866-0.7055 2.4257-0.7055 0.72628 0 1.3919 0.13132 1.9973 0.3934 0.60486 0.26264 1.1547 0.65718 1.6489 1.1813v-5.4751z"/>
            <path d="m79.948 4.2497v19.312h-5.9697l0.10157-1.6049c-0.40683 0.65149-0.90729 1.1398-1.5031 1.4656s-1.2812 0.48834-2.0552 0.48834c-0.88176 0-1.6126-0.1552-2.1936-0.4656-0.58103-0.3104-1.01-0.72255-1.2858-1.237-0.27576-0.51392-0.44769-1.05-0.51521-1.6083-0.06809-0.55769-0.10213-1.6662-0.10213-3.3251v-13.025h5.8687v13.141c0 1.5042 0.04539 2.3968 0.13788 2.6782 0.09192 0.2814 0.34101 0.42182 0.74785 0.42182 0.43577 0 0.69451-0.14553 0.77678-0.4366 0.08227-0.29107 0.1237-1.2268 0.1237-2.8089v-12.996z"/>
            <path d="m88.024 4.2497-0.10157 1.7794c0.42612-0.70948 0.94644-1.2422 1.5615-1.5969s1.3243-0.53154 2.1278-0.53154c1.0077 0 1.8305 0.23763 2.4699 0.71289 0.6389 0.47583 1.0503 1.0745 1.2347 1.7976 0.18384 0.72255 0.27576 1.9278 0.27576 3.6162v13.535h-5.8687v-13.375c0-1.3291-0.04312-2.1387-0.12994-2.4303-0.087948-0.29107-0.32966-0.4366-0.72685-0.4366-0.41648 0-0.67805 0.16771-0.78416 0.50198-0.10667 0.33484-0.16001 1.2302-0.16001 2.6856v13.054h-5.8682v-19.312z"/>
            <path d="m97.646 22.625c0-0.32688 0.11178-0.60317 0.33591-0.82716 0.22356-0.22455 0.50216-0.33712 0.83466-0.33712 0.33931 0 0.62075 0.1137 0.84487 0.34166 0.22356 0.22683 0.33591 0.50198 0.33591 0.82261 0 0.31608-0.11235 0.58668-0.33591 0.81465-0.22413 0.22683-0.50897 0.34053-0.85338 0.34053-0.33307 0-0.60997-0.1137-0.83069-0.34053-0.22129-0.22796-0.33137-0.49857-0.33137-0.81465"/>
            <path d="m112.48 22.979c-1.035 0.54575-2.3332 0.81863-3.8947 0.81863-2.0154 0-3.6258-0.64126-4.8298-1.9232-1.2046-1.2825-1.8072-2.9795-1.8072-5.0897 0-2.2677 0.67862-4.0931 2.0336-5.4751 1.3561-1.3826 3.0776-2.0739 5.1663-2.0739 1.3436 0 2.454 0.19101 3.3318 0.57304v1.901c-1.0049-0.55826-2.1096-0.83682-3.3137-0.83682-1.5683 0-2.845 0.52301-3.8312 1.569-0.98672 1.046-1.4798 2.457-1.4798 4.2336 0 1.6861 0.4596 3.0244 1.3794 4.0164 0.92034 0.99145 2.125 1.4872 3.6138 1.4872 1.3919 0 2.6027-0.31551 3.6314-0.94597z"/>
            <path d="m116.29 16.54c0 1.7038 0.43464 3.0693 1.3028 4.0977 0.86814 1.0278 2.0018 1.5418 3.3999 1.5418 1.5008 0 2.6799-0.49288 3.5361-1.4786 0.85622-0.9852 1.2846-2.3632 1.2846-4.1335 0-1.8192-0.41931-3.2228-1.2579-4.2114-0.83807-0.98861-1.9865-1.4826-3.4448-1.4826-1.4344 0-2.5965 0.52131-3.4862 1.5645-0.8897 1.0426-1.3346 2.4098-1.3346 4.1022m-1.9065 0.14553c0-2.274 0.61451-4.084 1.843-5.4302 1.2284-1.3462 2.8926-2.0193 4.9932-2.0193 1.9547 0 3.5282 0.65831 4.7208 1.9738 1.1921 1.3155 1.7885 3.0289 1.7885 5.1392 0 2.2865-0.61167 4.0988-1.8339 5.4388-1.2228 1.3405-2.8563 2.0108-4.9024 2.0108-1.9973 0-3.5985-0.65831-4.8026-1.9738-1.2046-1.3161-1.8066-3.0289-1.8066-5.1392"/>
            <path d="m143.17 23.562v-9.3324c0-0.77031 0.0454-1.6947 0.13618-2.7742h-0.0454c-0.15718 0.67935-0.29619 1.1523-0.41705 1.419l-4.6391 10.688h-1.0077l-4.6301-10.606c-0.10895-0.24218-0.24853-0.74245-0.41762-1.5008h-0.055c0.0607 0.6549 0.0914 1.6071 0.0914 2.8567v9.2499h-1.734v-14.09h2.4603l4.1483 9.6598c0.31492 0.74018 0.52372 1.3155 0.62699 1.7282h0.063c0.31492-0.86695 0.53621-1.4553 0.66274-1.764l4.2221-9.624h2.3423v14.09z"/>
        </g>
        <path d="m152.61 2.808c1.428 0 2.66 0.504 3.682 1.512 1.008 1.008 1.512 2.24 1.512 3.682 0 1.428-0.504 2.66-1.512 3.682-1.022 1.008-2.254 1.512-3.682 1.512-1.442 0-2.674-0.504-3.682-1.512-1.008-1.022-1.512-2.254-1.512-3.682 0-1.442 0.504-2.674 1.512-3.682s2.24-1.512 3.682-1.512zm0 0.658c-1.26 0-2.324 0.434-3.206 1.33-0.896 0.882-1.33 1.946-1.33 3.206 0 1.246 0.434 2.31 1.33 3.206 0.882 0.882 1.946 1.33 3.206 1.33 1.246 0 2.31-0.448 3.206-1.33 0.882-0.896 1.33-1.96 1.33-3.206 0-1.26-0.448-2.324-1.33-3.206-0.896-0.896-1.96-1.33-3.206-1.33zm-2.408 1.442h2.632c0.644 0 1.148 0.14 1.526 0.434 0.392 0.308 0.588 0.756 0.588 1.33 0 0.728-0.336 1.204-0.994 1.456 0.336 0.084 0.574 0.294 0.714 0.602 0.098 0.21 0.168 0.518 0.196 0.938 0.042 0.658 0.182 1.134 0.434 1.428h-1.106c-0.154-0.266-0.252-0.686-0.294-1.274-0.042-0.476-0.14-0.798-0.308-0.966-0.182-0.21-0.504-0.308-0.966-0.308h-1.442v2.548h-0.98zm0.98 0.84v1.946h1.54c0.392 0 0.714-0.098 0.938-0.266 0.196-0.182 0.308-0.42 0.308-0.714 0-0.644-0.42-0.966-1.26-0.966z"/>
    </g>
</svg>
